Coordinates
version=1
nRows=25
nColumns=28
inDegrees=yes

Units are S.I. units (second, meters, Newtons, ...)
Angles are in degrees.

endheader
time	pelvis_tilt	pelvis_list	pelvis_rotation	pelvis_tx	pelvis_ty	pelvis_tz	hip_flexion_r	hip_adduction_r	hip_rotation_r	knee_angle_r	ankle_angle_r	subtalar_angle_r	mtp_angle_r	hip_flexion_l	hip_adduction_l	hip_rotation_l	knee_angle_l	socket_flexion	socket_adduction	socket_rotation	socket_tx	socket_ty	socket_tz	foot_flex	lumbar_extension	lumbar_bending	lumbar_rotation
      0.63333333	     -3.21764055	     -2.24361244	      9.38876878	     -0.04010185	      0.98352279	      0.28414391	     29.04696587	      0.10637633	     -9.80495617	     -8.63050586	     18.10107298	    -15.04552898	    -12.75205629	    -21.81408405	     -6.58677027	     17.70581009	      8.94932988	      9.22832477	      0.00000000	      0.00000000	      0.00000000	      0.00000000	      0.00000000	      8.02303919	     -7.04122777	      3.09000233	     -7.45809709
      0.63750000	     -3.17281194	     -2.36796654	      9.34473188	     -0.03345250	      0.98249502	      0.28430830	     29.32650390	      0.28974277	     -9.63605596	     -9.65853476	     17.76682513	    -15.09830166	    -12.67674632	    -22.17734930	     -6.72839612	     17.53517318	      8.88428080	      9.37464432	      0.00000000	      0.00000000	      0.00000000	      0.00000000	      0.00000000	      7.97160045	     -7.00928513	      3.34044709	     -7.50011056
      0.64166667	     -3.11406473	     -2.49080369	      9.23217281	     -0.02676946	      0.98147438	      0.28453171	     29.61436591	      0.49659923	     -9.43448651	    -10.74531108	     17.44110700	    -15.05332786	    -12.44604211	    -22.55904738	     -6.83199961	     17.28325159	      8.79074078	      9.51761476	      0.00000000	      0.00000000	      0.00000000	      0.00000000	      0.00000000	      7.90722753	     -6.98137998	      3.61586067	     -7.47255505
      0.64583333	     -3.05237608	     -2.59712594	      9.15741017	     -0.02009335	      0.98052224	      0.28474100	     29.88942709	      0.67098171	     -9.27427872	    -11.84020267	     17.06222825	    -15.00130547	    -12.24581940	    -22.91608288	     -6.93121900	     17.07938067	      8.67144233	      9.67439136	      0.00000000	      0.00000000	      0.00000000	      0.00000000	      0.00000000	      7.80121027	     -6.97593119	      3.85703890	     -7.46175052
      0.65000000	     -2.91743192	     -2.67479502	      9.06886422	     -0.01320662	      0.97956918	      0.28488659	     30.12901085	      0.75846367	     -9.46667651	    -12.99611328	     15.30267298	    -14.78211544	     -5.01435681	    -23.37475388	     -6.99575942	     16.83844350	      8.55446927	      9.82691298	      0.00000000	      0.00000000	      0.00000000	      0.00000000	      0.00000000	      7.69025028	     -7.02826629	      4.05433282	     -7.27953052
      0.65416667	     -2.85819864	     -2.79584297	      8.98642905	     -0.00649430	      0.97870050	      0.28510260	     30.38591263	      0.94256358	     -9.33690691	    -14.07064546	     14.90252785	    -14.75744610	     -5.00502719	    -23.69132666	     -7.09417666	     16.65535865	      8.38010881	      9.99115579	      0.00000000	      0.00000000	      0.00000000	      0.00000000	      0.00000000	      7.54060160	     -7.02018922	      4.32836274	     -7.32094741
      0.65833333	     -2.78923715	     -2.93364172	      8.84918328	      0.00037531	      0.97785372	      0.28543323	     30.64636364	      1.16972451	     -9.17364858	    -15.20708944	     14.52591385	    -14.67262307	     -4.86348149	    -24.01549044	     -7.17730715	     16.33451097	      8.13847823	     10.11749741	      0.00000000	      0.00000000	      0.00000000	      0.00000000	      0.00000000	      7.38669094	     -6.98084339	      4.59403539	     -7.29713494
      0.66250000	     -2.67967394	     -3.07451348	      8.71392229	      0.00723255	      0.97714701	      0.28573879	     30.84365786	      1.39783885	     -9.04333382	    -16.30075732	     14.11613654	    -14.54710296	     -4.72435342	    -24.33696869	     -7.25413038	     16.01694603	      7.80067782	     10.21268466	      0.00000000	      0.00000000	      0.00000000	      0.00000000	      0.00000000	      7.19113127	     -7.00073193	      4.86882020	     -7.22388093
      0.66666667	     -2.56308410	     -3.20779387	      8.54344418	      0.01410901	      0.97650348	      0.28611000	     31.01985291	      1.63464815	     -8.91810141	    -17.38980567	     13.73490166	    -14.39329079	     -4.50520786	    -24.65365542	     -7.30740355	     15.67347918	      7.44797729	     10.32631407	      0.00000000	      0.00000000	      0.00000000	      0.00000000	      0.00000000	      6.98279813	     -7.04074485	      5.13301720	     -7.11516682
      0.67083333	     -2.35534136	     -3.31096499	      8.39909928	      0.02108946	      0.97599825	      0.28633440	     31.08657538	      1.77361145	     -9.05073578	    -18.42944731	     12.17394971	    -14.24938149	      1.31330032	    -25.04943206	     -7.33127143	     15.33978577	      7.04058407	     10.42743448	      0.00000000	      0.00000000	      0.00000000	      0.00000000	      0.00000000	      6.73225784	     -7.17684965	      5.35649717	     -6.74996473
      0.67500000	     -2.27164607	     -3.31876789	      8.31677103	      0.02780554	      0.97554298	      0.28663994	     31.26319655	      1.83658066	     -8.91239566	    -19.51758417	     11.80073328	    -14.20557881	      1.30143988	    -25.16726579	     -7.25759369	     15.16072770	      6.38218410	     10.46014707	      0.00000000	      0.00000000	      0.00000000	      0.00000000	      0.00000000	      6.49479459	     -7.20954517	      5.46996156	     -6.85486184
      0.67916667	     -2.07571258	     -3.57399404	      7.99945647	      0.03495107	      0.97514287	      0.28718032	     31.29555593	      2.26830121	     -8.75580317	    -20.50799440	     11.56598601	    -13.90569275	      1.59450517	    -25.54285248	     -7.35324800	     14.55728830	      5.90477006	     10.52570203	      0.00000000	      0.00000000	      0.00000000	      0.00000000	      0.00000000	      6.16538238	     -7.30805932	      5.86256847	     -6.49796657
      0.68333333	     -1.93883489	     -3.72019140	      7.90378658	      0.04192369	      0.97486892	      0.28738723	     31.35150034	      2.46203302	     -8.75497713	    -21.48304190	     11.22829967	    -13.87345438	      1.63411567	    -25.69061731	     -7.39682456	     14.23557040	      5.20080654	     10.57178642	      0.00000000	      0.00000000	      0.00000000	      0.00000000	      0.00000000	      5.88742347	     -7.34367546	      6.16698273	     -6.49337731
      0.68750000	     -1.79058536	     -3.87128776	      7.74984156	      0.04892123	      0.97468569	      0.28768703	     31.37524443	      2.68733984	     -8.72567562	    -22.42494882	     10.91519747	    -13.77495270	      1.69883840	    -25.82663101	     -7.41862733	     13.85239093	      4.43099676	     10.59412377	      0.00000000	      0.00000000	      0.00000000	      0.00000000	      0.00000000	      5.54995388	     -7.39709687	      6.45290005	     -6.45060558
      0.69166667	     -1.66426281	     -4.03610757	      7.63413619	      0.05585849	      0.97459777	      0.28795908	     31.36499421	      2.92316600	     -8.64458334	    -23.27270057	     10.68804052	    -13.68835549	      1.74422831	    -25.88957337	     -7.47576790	     13.61909404	      3.62865661	     10.62783823	      0.00000000	      0.00000000	      0.00000000	      0.00000000	      0.00000000	      5.17713974	     -7.44304610	      6.76212905	     -6.39965025
      0.69583333	     -1.51370275	     -4.19363348	      7.48339536	      0.06288168	      0.97456222	      0.28826367	     31.33475094	      3.15363241	     -8.63383745	    -24.14275354	     10.44601839	    -13.58509266	      1.79492458	    -25.94299233	     -7.48948202	     13.21158339	      2.70517137	     10.62355072	      0.00000000	      0.00000000	      0.00000000	      0.00000000	      0.00000000	      4.79211538	     -7.50148815	      7.05877333	     -6.33896881
      0.70000000	     -1.12144123	     -4.22486020	      7.22344415	      0.06987197	      0.97479606	      0.28865249	     31.06476474	      3.26427197	     -8.78219868	    -25.05321369	      9.73054115	    -13.04160065	      4.94263500	    -26.23987317	     -7.32871817	     12.56455051	      1.65999823	     10.58293371	      0.00000000	      0.00000000	      0.00000000	      0.00000000	      0.00000000	      4.50793738	     -7.86945724	      7.17531329	     -5.90305633
      0.70416667	     -0.98309659	     -4.39551964	      7.05363524	      0.07696843	      0.97488661	      0.28896522	     30.97014425	      3.50708677	     -8.80073627	    -25.80798644	      9.53975105	    -12.96832336	      4.95129542	    -26.21651761	     -7.34074015	     12.08689811	      0.63174533	     10.57856185	      0.00000000	      0.00000000	      0.00000000	      0.00000000	      0.00000000	      4.11847642	     -7.89876601	      7.47445259	     -5.85757623
      0.70833333	     -0.80268941	     -4.53977947	      6.84732743	      0.08395893	      0.97508467	      0.28934762	     30.79994794	      3.75246338	     -8.75590496	    -26.50831435	      9.38533989	    -12.77012310	      5.00558767	    -26.17351688	     -7.30607923	     11.58202495	     -0.53773636	     10.53162249	      0.00000000	      0.00000000	      0.00000000	      0.00000000	      0.00000000	      3.80304356	     -7.99118521	      7.73254834	     -5.71980716
      0.71250000	     -0.66030764	     -4.69441440	      6.69422259	      0.09106189	      0.97530247	      0.28965566	     30.64984454	      3.97132359	     -8.79677450	    -27.20364141	      9.28492484	    -12.68035045	      5.03914182	    -26.10597541	     -7.31969737	     11.15500340	     -1.59570015	     10.54074006	      0.00000000	      0.00000000	      0.00000000	      0.00000000	      0.00000000	      3.31209619	     -8.03405946	      8.00385349	     -5.64693990
      0.71666667	     -0.49159095	     -4.84232940	      6.50218568	      0.09808137	      0.97559548	      0.29002939	     30.44978784	      4.19829838	     -8.84531286	    -27.85277670	      9.19873485	    -12.52225090	      5.09035011	    -25.98658065	     -7.29958692	     10.60311225	     -2.85127643	     10.48083245	      0.00000000	      0.00000000	      0.00000000	      0.00000000	      0.00000000	      2.92929553	     -8.11818028	      8.26529806	     -5.55044764
      0.72083333	     -0.21465588	     -4.90219524	      6.27375918	      0.10487780	      0.97612232	      0.29054129	     30.08539773	      4.38527663	     -8.78896313	    -28.40609062	      9.24106011	    -11.96075653	      5.33504469	    -25.86338103	     -7.18007305	      9.98550846	     -4.40088179	     10.28909753	      0.00000000	      0.00000000	      0.00000000	      0.00000000	      0.00000000	      2.69768101	     -8.37632193	      8.36956952	     -5.15494321
      0.72500000	     -0.02275024	     -5.03648498	      6.05937514	      0.11191795	      0.97651845	      0.29088676	     29.79609386	      4.60233831	     -8.85196437	    -28.96997507	      9.25308356	    -11.67335926	      5.48930318	    -25.71122365	     -7.14450089	      9.38654840	     -5.76199784	     10.21337781	      0.00000000	      0.00000000	      0.00000000	      0.00000000	      0.00000000	      2.43660550	     -8.47065413	      8.61298867	     -5.01740328
      0.72916667	      0.14875657	     -5.16230912	      5.89187744	      0.11888039	      0.97697956	      0.29133040	     29.51798521	      4.80902262	     -8.92740256	    -29.51634360	      9.27101945	    -11.46535551	      5.61149020	    -25.50876985	     -7.14421268	      8.81168598	     -7.09604135	     10.14373136	      0.00000000	      0.00000000	      0.00000000	      0.00000000	      0.00000000	      2.02368874	     -8.56461718	      8.80732397	     -4.90667369
      0.73333333	      0.36858246	     -5.21246699	      5.69808926	      0.12558282	      0.97760237	      0.29164156	     29.11536784	      4.93672267	     -8.96277508	    -29.89620302	      9.38754909	    -11.01221509	      5.89645064	    -25.15981989	     -7.02793766	      8.25969664	     -8.96417934	      9.76774010	      0.00000000	      0.00000000	      0.00000000	      0.00000000	      0.00000000	      1.76652777	     -8.77135793	      8.96631121	     -4.62333304
